<?plantuml 1.2026.2?><svg xmlns="http://www.w3.org/2000/svg" xmlns:xlink="http://www.w3.org/1999/xlink" contentStyleType="text/css" data-diagram-type="CLASS" height="997px" preserveAspectRatio="none" style="width:592px;height:997px;background:#FFFFFF;" version="1.1" viewBox="0 0 592 997" width="592px" zoomAndPan="magnify"><defs/><g><!--cluster App\\Models--><g class="cluster" data-qualified-name="App..Models" data-source-line="5" id="ent0002"><path d="M330.5,313 L410.8311,313 A3.75,3.75 0 0 1 413.3311,315.5 L420.3311,336.6094 L582.5,336.6094 A2.5,2.5 0 0 1 585,339.1094 L585,987.5 A2.5,2.5 0 0 1 582.5,990 L330.5,990 A2.5,2.5 0 0 1 328,987.5 L328,315.5 A2.5,2.5 0 0 1 330.5,313" fill="none" style="stroke:#000000;stroke-width:1.5;"/><line style="stroke:#000000;stroke-width:1.5;" x1="328" x2="420.3311" y1="336.6094" y2="336.6094"/><text fill="#000000" font-family="sans-serif" font-size="14" font-weight="bold" lengthAdjust="spacing" textLength="79.3311" x="332" y="329.5332">App\Models</text></g><!--class User--><g class="entity" data-qualified-name="App..Models.User" data-source-line="6" id="ent0003"><rect fill="#F1F1F1" height="110.4375" rx="2.5" ry="2.5" style="stroke:#181818;stroke-width:0.5;" width="122.1064" x="414" y="864"/><ellipse cx="456.2465" cy="880" fill="#ADD1B2" rx="11" ry="11" style="stroke:#181818;stroke-width:1;"/><path d="M459.0122,875.875 Q459.1684,875.6563 459.3559,875.5469 Q459.5434,875.4375 459.7622,875.4375 Q460.1372,875.4375 460.3715,875.7031 Q460.6059,875.9531 460.6059,876.5625 L460.6059,878.0156 Q460.6059,878.625 460.3715,878.8906 Q460.1372,879.1563 459.7622,879.1563 Q459.4184,879.1563 459.2153,878.9531 Q459.0122,878.7656 458.9028,878.25 Q458.8559,877.8906 458.6684,877.7031 Q458.3403,877.3281 457.7309,877.1094 Q457.1215,876.8906 456.4965,876.8906 Q455.7309,876.8906 455.0903,877.2188 Q454.4653,877.5469 453.9653,878.2969 Q453.4809,879.0469 453.4809,880.0781 L453.4809,881.1719 Q453.4809,882.4063 454.3715,883.2344 Q455.2622,884.0469 456.8559,884.0469 Q457.7934,884.0469 458.4497,883.7969 Q458.8403,883.6406 459.2622,883.2031 Q459.5278,882.9375 459.6684,882.8594 Q459.8247,882.7813 460.0278,882.7813 Q460.3559,882.7813 460.6059,883.0469 Q460.8715,883.2969 460.8715,883.6406 Q460.8715,883.9844 460.5278,884.3906 Q460.0278,884.9688 459.2309,885.2969 Q458.1528,885.75 456.8559,885.75 Q455.3403,885.75 454.1372,885.125 Q453.1528,884.625 452.4653,883.5625 Q451.7778,882.4844 451.7778,881.2031 L451.7778,880.0469 Q451.7778,878.7188 452.3872,877.5781 Q453.0122,876.4219 454.1059,875.8125 Q455.1997,875.1875 456.434,875.1875 Q457.1684,875.1875 457.809,875.3594 Q458.4653,875.5156 459.0122,875.875 Z " fill="#000000"/><text fill="#000000" font-family="sans-serif" font-size="14" lengthAdjust="spacing" textLength="29.5586" x="476.3013" y="885.7285">User</text><line style="stroke:#181818;stroke-width:0.5;" x1="415" x2="535.1064" y1="896" y2="896"/><text fill="#000000" font-family="sans-serif" font-size="14" lengthAdjust="spacing" textLength="60.3203" x="420" y="914.5332">+id: bigint</text><text fill="#000000" font-family="sans-serif" font-size="14" lengthAdjust="spacing" textLength="85.21" x="420" y="932.1426">+name: string</text><text fill="#000000" font-family="sans-serif" font-size="14" lengthAdjust="spacing" textLength="83.6445" x="420" y="949.752">+email: string</text><text fill="#000000" font-family="sans-serif" font-size="14" lengthAdjust="spacing" textLength="110.1064" x="420" y="967.3613">+password: string</text></g><!--class ContactRequest--><g class="entity" data-qualified-name="App..Models.ContactRequest" data-source-line="13" id="ent0004"><rect fill="#F1F1F1" height="188.875" rx="2.5" ry="2.5" style="stroke:#181818;stroke-width:0.5;" width="132.3926" x="346" y="349"/><ellipse cx="361" cy="365" fill="#ADD1B2" rx="11" ry="11" style="stroke:#181818;stroke-width:1;"/><path d="M363.7656,360.875 Q363.9219,360.6563 364.1094,360.5469 Q364.2969,360.4375 364.5156,360.4375 Q364.8906,360.4375 365.125,360.7031 Q365.3594,360.9531 365.3594,361.5625 L365.3594,363.0156 Q365.3594,363.625 365.125,363.8906 Q364.8906,364.1563 364.5156,364.1563 Q364.1719,364.1563 363.9688,363.9531 Q363.7656,363.7656 363.6563,363.25 Q363.6094,362.8906 363.4219,362.7031 Q363.0938,362.3281 362.4844,362.1094 Q361.875,361.8906 361.25,361.8906 Q360.4844,361.8906 359.8438,362.2188 Q359.2188,362.5469 358.7188,363.2969 Q358.2344,364.0469 358.2344,365.0781 L358.2344,366.1719 Q358.2344,367.4063 359.125,368.2344 Q360.0156,369.0469 361.6094,369.0469 Q362.5469,369.0469 363.2031,368.7969 Q363.5938,368.6406 364.0156,368.2031 Q364.2813,367.9375 364.4219,367.8594 Q364.5781,367.7813 364.7813,367.7813 Q365.1094,367.7813 365.3594,368.0469 Q365.625,368.2969 365.625,368.6406 Q365.625,368.9844 365.2813,369.3906 Q364.7813,369.9688 363.9844,370.2969 Q362.9063,370.75 361.6094,370.75 Q360.0938,370.75 358.8906,370.125 Q357.9063,369.625 357.2188,368.5625 Q356.5313,367.4844 356.5313,366.2031 L356.5313,365.0469 Q356.5313,363.7188 357.1406,362.5781 Q357.7656,361.4219 358.8594,360.8125 Q359.9531,360.1875 361.1875,360.1875 Q361.9219,360.1875 362.5625,360.3594 Q363.2188,360.5156 363.7656,360.875 Z " fill="#000000"/><text fill="#000000" font-family="sans-serif" font-size="14" lengthAdjust="spacing" textLength="100.3926" x="375" y="370.7285">ContactRequest</text><line style="stroke:#181818;stroke-width:0.5;" x1="347" x2="477.3926" y1="381" y2="381"/><text fill="#000000" font-family="sans-serif" font-size="14" lengthAdjust="spacing" textLength="60.3203" x="352" y="399.5332">+id: bigint</text><text fill="#000000" font-family="sans-serif" font-size="14" lengthAdjust="spacing" textLength="103.127" x="352" y="417.1426">+user_id: bigint?</text><text fill="#000000" font-family="sans-serif" font-size="14" lengthAdjust="spacing" textLength="85.21" x="352" y="434.752">+name: string</text><text fill="#000000" font-family="sans-serif" font-size="14" lengthAdjust="spacing" textLength="89.1201" x="352" y="452.3613">+phone: string</text><text fill="#000000" font-family="sans-serif" font-size="14" lengthAdjust="spacing" textLength="95.3271" x="352" y="469.9707">+message: text</text><text fill="#000000" font-family="sans-serif" font-size="14" lengthAdjust="spacing" textLength="87.541" x="352" y="487.5801">+status: string</text><line style="stroke:#181818;stroke-width:0.5;" x1="347" x2="477.3926" y1="494.6563" y2="494.6563"/><text fill="#000000" font-family="sans-serif" font-size="14" lengthAdjust="spacing" textLength="44.7344" x="352" y="513.1895">+user()</text><text fill="#000000" font-family="sans-serif" font-size="14" lengthAdjust="spacing" textLength="81.3066" x="352" y="530.7988">+messages()</text></g><!--class Message--><g class="entity" data-qualified-name="App..Models.Message" data-source-line="24" id="ent0005"><rect fill="#F1F1F1" height="206.4844" rx="2.5" ry="2.5" style="stroke:#181818;stroke-width:0.5;" width="187.5127" x="381" y="598"/><ellipse cx="442.103" cy="614" fill="#ADD1B2" rx="11" ry="11" style="stroke:#181818;stroke-width:1;"/><path d="M444.8687,609.875 Q445.0249,609.6563 445.2124,609.5469 Q445.3999,609.4375 445.6187,609.4375 Q445.9937,609.4375 446.228,609.7031 Q446.4624,609.9531 446.4624,610.5625 L446.4624,612.0156 Q446.4624,612.625 446.228,612.8906 Q445.9937,613.1563 445.6187,613.1563 Q445.2749,613.1563 445.0718,612.9531 Q444.8687,612.7656 444.7593,612.25 Q444.7124,611.8906 444.5249,611.7031 Q444.1968,611.3281 443.5874,611.1094 Q442.978,610.8906 442.353,610.8906 Q441.5874,610.8906 440.9468,611.2188 Q440.3218,611.5469 439.8218,612.2969 Q439.3374,613.0469 439.3374,614.0781 L439.3374,615.1719 Q439.3374,616.4063 440.228,617.2344 Q441.1187,618.0469 442.7124,618.0469 Q443.6499,618.0469 444.3062,617.7969 Q444.6968,617.6406 445.1187,617.2031 Q445.3843,616.9375 445.5249,616.8594 Q445.6812,616.7813 445.8843,616.7813 Q446.2124,616.7813 446.4624,617.0469 Q446.728,617.2969 446.728,617.6406 Q446.728,617.9844 446.3843,618.3906 Q445.8843,618.9688 445.0874,619.2969 Q444.0093,619.75 442.7124,619.75 Q441.1968,619.75 439.9937,619.125 Q439.0093,618.625 438.3218,617.5625 Q437.6343,616.4844 437.6343,615.2031 L437.6343,614.0469 Q437.6343,612.7188 438.2437,611.5781 Q438.8687,610.4219 439.9624,609.8125 Q441.0562,609.1875 442.2905,609.1875 Q443.0249,609.1875 443.6655,609.3594 Q444.3218,609.5156 444.8687,609.875 Z " fill="#000000"/><text fill="#000000" font-family="sans-serif" font-size="14" lengthAdjust="spacing" textLength="56.8066" x="462.603" y="619.7285">Message</text><line style="stroke:#181818;stroke-width:0.5;" x1="382" x2="567.5127" y1="630" y2="630"/><text fill="#000000" font-family="sans-serif" font-size="14" lengthAdjust="spacing" textLength="60.3203" x="387" y="648.5332">+id: bigint</text><text fill="#000000" font-family="sans-serif" font-size="14" lengthAdjust="spacing" textLength="110.9131" x="387" y="666.1426">+sender_id: bigint</text><text fill="#000000" font-family="sans-serif" font-size="14" lengthAdjust="spacing" textLength="117.8994" x="387" y="683.752">+receiver_id: bigint</text><text fill="#000000" font-family="sans-serif" font-size="14" lengthAdjust="spacing" textLength="175.5127" x="387" y="701.3613">+contact_request_id: bigint?</text><text fill="#000000" font-family="sans-serif" font-size="14" lengthAdjust="spacing" textLength="95.3271" x="387" y="718.9707">+message: text</text><text fill="#000000" font-family="sans-serif" font-size="14" lengthAdjust="spacing" textLength="87.541" x="387" y="736.5801">+status: string</text><line style="stroke:#181818;stroke-width:0.5;" x1="382" x2="567.5127" y1="743.6563" y2="743.6563"/><text fill="#000000" font-family="sans-serif" font-size="14" lengthAdjust="spacing" textLength="60.3066" x="387" y="762.1895">+sender()</text><text fill="#000000" font-family="sans-serif" font-size="14" lengthAdjust="spacing" textLength="67.293" x="387" y="779.7988">+receiver()</text><text fill="#000000" font-family="sans-serif" font-size="14" lengthAdjust="spacing" textLength="114.7822" x="387" y="797.4082">+contactRequest()</text></g><!--class WebRoutes--><g class="entity" data-qualified-name="WebRoutes" data-source-line="37" id="ent0006"><rect fill="#F1F1F1" height="282.1406" rx="2.5" ry="2.5" style="stroke:#181818;stroke-width:0.5;" width="227.168" x="223.5" y="7"/><ellipse cx="280.3066" cy="29.6094" fill="#ADD1B2" rx="11" ry="11" style="stroke:#181818;stroke-width:1;"/><path d="M283.0723,25.4844 Q283.2285,25.2656 283.416,25.1563 Q283.6035,25.0469 283.8223,25.0469 Q284.1973,25.0469 284.4316,25.3125 Q284.666,25.5625 284.666,26.1719 L284.666,27.625 Q284.666,28.2344 284.4316,28.5 Q284.1973,28.7656 283.8223,28.7656 Q283.4785,28.7656 283.2754,28.5625 Q283.0723,28.375 282.9629,27.8594 Q282.916,27.5 282.7285,27.3125 Q282.4004,26.9375 281.791,26.7188 Q281.1816,26.5 280.5566,26.5 Q279.791,26.5 279.1504,26.8281 Q278.5254,27.1563 278.0254,27.9063 Q277.541,28.6563 277.541,29.6875 L277.541,30.7813 Q277.541,32.0156 278.4316,32.8438 Q279.3223,33.6563 280.916,33.6563 Q281.8535,33.6563 282.5098,33.4063 Q282.9004,33.25 283.3223,32.8125 Q283.5879,32.5469 283.7285,32.4688 Q283.8848,32.3906 284.0879,32.3906 Q284.416,32.3906 284.666,32.6563 Q284.9316,32.9063 284.9316,33.25 Q284.9316,33.5938 284.5879,34 Q284.0879,34.5781 283.291,34.9063 Q282.2129,35.3594 280.916,35.3594 Q279.4004,35.3594 278.1973,34.7344 Q277.2129,34.2344 276.5254,33.1719 Q275.8379,32.0938 275.8379,30.8125 L275.8379,29.6563 Q275.8379,28.3281 276.4473,27.1875 Q277.0723,26.0313 278.166,25.4219 Q279.2598,24.7969 280.4941,24.7969 Q281.2285,24.7969 281.8691,24.9688 Q282.5254,25.125 283.0723,25.4844 Z " fill="#000000"/><text fill="#000000" font-family="sans-serif" font-size="14" lengthAdjust="spacing" textLength="77.0342" x="314.8169" y="26.5332">Web Routes</text><text fill="#000000" font-family="sans-serif" font-size="14" lengthAdjust="spacing" textLength="105.0547" x="300.8066" y="44.1426">(routes/web.php)</text><line style="stroke:#181818;stroke-width:0.5;" x1="224.5" x2="449.668" y1="52.2188" y2="52.2188"/><text fill="#000000" font-family="sans-serif" font-size="14" lengthAdjust="spacing" textLength="44.7344" x="229.5" y="70.752">+GET /</text><text fill="#000000" font-family="sans-serif" font-size="14" lengthAdjust="spacing" textLength="150.5684" x="229.5" y="88.3613">+GET /mentions-legales</text><text fill="#000000" font-family="sans-serif" font-size="14" lengthAdjust="spacing" textLength="187.1611" x="229.5" y="105.9707">+GET /politique-confidentialite</text><text fill="#000000" font-family="sans-serif" font-size="14" lengthAdjust="spacing" textLength="74.3135" x="229.5" y="123.5801">+GET /login</text><text fill="#000000" font-family="sans-serif" font-size="14" lengthAdjust="spacing" textLength="83.6514" x="229.5" y="141.1895">+POST /login</text><text fill="#000000" font-family="sans-serif" font-size="14" lengthAdjust="spacing" textLength="82.8652" x="229.5" y="158.7988">+GET /admin</text><text fill="#000000" font-family="sans-serif" font-size="14" lengthAdjust="spacing" textLength="141.2236" x="229.5" y="176.4082">+GET /admin/en-cours</text><text fill="#000000" font-family="sans-serif" font-size="14" lengthAdjust="spacing" textLength="133.4375" x="229.5" y="194.0176">+GET /admin/termine</text><text fill="#000000" font-family="sans-serif" font-size="14" lengthAdjust="spacing" textLength="149.0098" x="229.5" y="211.627">+GET /admin/recherche</text><text fill="#000000" font-family="sans-serif" font-size="14" lengthAdjust="spacing" textLength="99.21" x="229.5" y="229.2363">+POST /contact</text><text fill="#000000" font-family="sans-serif" font-size="14" lengthAdjust="spacing" textLength="215.168" x="229.5" y="246.8457">+POST /admin/requests/{id}/status</text><text fill="#000000" font-family="sans-serif" font-size="14" lengthAdjust="spacing" textLength="190.2715" x="229.5" y="264.4551">+DELETE /admin/requests/{id}</text><text fill="#000000" font-family="sans-serif" font-size="14" lengthAdjust="spacing" textLength="92.2168" x="229.5" y="282.0645">+POST /logout</text></g><!--class RateLimiter--><g class="entity" data-qualified-name="RateLimiter" data-source-line="53" id="ent0007"><rect fill="#F1F1F1" height="45.2188" rx="2.5" ry="2.5" style="stroke:#181818;stroke-width:0.5;" width="103.5791" x="74" y="421"/><ellipse cx="89" cy="443.6094" fill="#ADD1B2" rx="11" ry="11" style="stroke:#181818;stroke-width:1;"/><path d="M91.7656,439.4844 Q91.9219,439.2656 92.1094,439.1563 Q92.2969,439.0469 92.5156,439.0469 Q92.8906,439.0469 93.125,439.3125 Q93.3594,439.5625 93.3594,440.1719 L93.3594,441.625 Q93.3594,442.2344 93.125,442.5 Q92.8906,442.7656 92.5156,442.7656 Q92.1719,442.7656 91.9688,442.5625 Q91.7656,442.375 91.6563,441.8594 Q91.6094,441.5 91.4219,441.3125 Q91.0938,440.9375 90.4844,440.7188 Q89.875,440.5 89.25,440.5 Q88.4844,440.5 87.8438,440.8281 Q87.2188,441.1563 86.7188,441.9063 Q86.2344,442.6563 86.2344,443.6875 L86.2344,444.7813 Q86.2344,446.0156 87.125,446.8438 Q88.0156,447.6563 89.6094,447.6563 Q90.5469,447.6563 91.2031,447.4063 Q91.5938,447.25 92.0156,446.8125 Q92.2813,446.5469 92.4219,446.4688 Q92.5781,446.3906 92.7813,446.3906 Q93.1094,446.3906 93.3594,446.6563 Q93.625,446.9063 93.625,447.25 Q93.625,447.5938 93.2813,448 Q92.7813,448.5781 91.9844,448.9063 Q90.9063,449.3594 89.6094,449.3594 Q88.0938,449.3594 86.8906,448.7344 Q85.9063,448.2344 85.2188,447.1719 Q84.5313,446.0938 84.5313,444.8125 L84.5313,443.6563 Q84.5313,442.3281 85.1406,441.1875 Q85.7656,440.0313 86.8594,439.4219 Q87.9531,438.7969 89.1875,438.7969 Q89.9219,438.7969 90.5625,438.9688 Q91.2188,439.125 91.7656,439.4844 Z " fill="#000000"/><text fill="#000000" font-family="sans-serif" font-size="14" lengthAdjust="spacing" textLength="71.5791" x="103" y="440.5332">RateLimiter</text><text fill="#000000" font-family="sans-serif" font-size="14" lengthAdjust="spacing" textLength="69.2412" x="104.1689" y="458.1426">(Illuminate)</text></g><!--class Session--><g class="entity" data-qualified-name="Session" data-source-line="54" id="ent0008"><rect fill="#F1F1F1" height="45.2188" rx="2.5" ry="2.5" style="stroke:#181818;stroke-width:0.5;" width="97.3516" x="213.5" y="421"/><ellipse cx="228.5" cy="443.6094" fill="#ADD1B2" rx="11" ry="11" style="stroke:#181818;stroke-width:1;"/><path d="M231.2656,439.4844 Q231.4219,439.2656 231.6094,439.1563 Q231.7969,439.0469 232.0156,439.0469 Q232.3906,439.0469 232.625,439.3125 Q232.8594,439.5625 232.8594,440.1719 L232.8594,441.625 Q232.8594,442.2344 232.625,442.5 Q232.3906,442.7656 232.0156,442.7656 Q231.6719,442.7656 231.4688,442.5625 Q231.2656,442.375 231.1563,441.8594 Q231.1094,441.5 230.9219,441.3125 Q230.5938,440.9375 229.9844,440.7188 Q229.375,440.5 228.75,440.5 Q227.9844,440.5 227.3438,440.8281 Q226.7188,441.1563 226.2188,441.9063 Q225.7344,442.6563 225.7344,443.6875 L225.7344,444.7813 Q225.7344,446.0156 226.625,446.8438 Q227.5156,447.6563 229.1094,447.6563 Q230.0469,447.6563 230.7031,447.4063 Q231.0938,447.25 231.5156,446.8125 Q231.7813,446.5469 231.9219,446.4688 Q232.0781,446.3906 232.2813,446.3906 Q232.6094,446.3906 232.8594,446.6563 Q233.125,446.9063 233.125,447.25 Q233.125,447.5938 232.7813,448 Q232.2813,448.5781 231.4844,448.9063 Q230.4063,449.3594 229.1094,449.3594 Q227.5938,449.3594 226.3906,448.7344 Q225.4063,448.2344 224.7188,447.1719 Q224.0313,446.0938 224.0313,444.8125 L224.0313,443.6563 Q224.0313,442.3281 224.6406,441.1875 Q225.2656,440.0313 226.3594,439.4219 Q227.4531,438.7969 228.6875,438.7969 Q229.4219,438.7969 230.0625,438.9688 Q230.7188,439.125 231.2656,439.4844 Z " fill="#000000"/><text fill="#000000" font-family="sans-serif" font-size="14" lengthAdjust="spacing" textLength="49.8066" x="250.2725" y="440.5332">Session</text><text fill="#000000" font-family="sans-serif" font-size="14" lengthAdjust="spacing" textLength="65.3516" x="242.5" y="458.1426">(is_admin)</text></g><!--link ContactRequest to User--><g class="link" data-entity-1="ent0004" data-entity-2="ent0003" data-link-type="dependency" data-source-line="56" id="lnk9"><path codeLine="56" d="M363.5,538.01 C363.5,676.68 363.5,919 363.5,919 C363.5,919 381.8,919 407.7,919" fill="none" id="ContactRequest-to-User" style="stroke:#181818;stroke-width:1;"/><polygon fill="#181818" points="413.7,919,404.7,915,408.7,919,404.7,923,413.7,919" style="stroke:#181818;stroke-width:1;"/><text fill="#000000" font-family="sans-serif" font-size="13" lengthAdjust="spacing" textLength="106.958" x="256.5" y="750.1051">belongsTo user_id</text><text fill="#000000" font-family="sans-serif" font-size="13" lengthAdjust="spacing" textLength="19.5127" x="340.064" y="559.3718">0..*</text><text fill="#000000" font-family="sans-serif" font-size="13" lengthAdjust="spacing" textLength="21.6836" x="384.4315" y="915.5651">0..1</text></g><!--reverse link ContactRequest to Message--><g class="link" data-entity-1="ent0004" data-entity-2="ent0005" data-link-type="aggregation" data-source-line="57" id="lnk10"><path codeLine="57" d="M413.33,550.29 C413.33,569.65 413.33,578.11 413.33,597.75" fill="none" id="ContactRequest-backto-Message" style="stroke:#181818;stroke-width:1;"/><polygon fill="none" points="413.33,538.29,409.33,544.29,413.33,550.29,417.33,544.29,413.33,538.29" style="stroke:#181818;stroke-width:1;"/><text fill="#000000" font-family="sans-serif" font-size="13" lengthAdjust="spacing" textLength="52.749" x="414.33" y="582.5151">hasMany</text><text fill="#000000" font-family="sans-serif" font-size="13" lengthAdjust="spacing" textLength="7.23" x="406.1647" y="559.3513">1</text><text fill="#000000" font-family="sans-serif" font-size="13" lengthAdjust="spacing" textLength="19.5127" x="389.1402" y="587.0703">0..*</text></g><!--link Message to ContactRequest--><g class="link" data-entity-1="ent0005" data-entity-2="ent0004" data-link-type="dependency" data-source-line="60" id="lnk13"><path codeLine="60" d="M445.67,597.75 C445.67,578.02 445.67,563.46 445.67,544.02" fill="none" id="Message-to-ContactRequest" style="stroke:#181818;stroke-width:1;"/><polygon fill="#181818" points="445.67,538.02,441.67,547.02,445.67,543.02,449.67,547.02,445.67,538.02" style="stroke:#181818;stroke-width:1;"/><text fill="#000000" font-family="sans-serif" font-size="13" lengthAdjust="spacing" textLength="109.8525" x="446.67" y="564.3751">contact_request_id</text><text fill="#000000" font-family="sans-serif" font-size="13" lengthAdjust="spacing" textLength="19.5127" x="423.8551" y="587.0703">0..*</text><text fill="#000000" font-family="sans-serif" font-size="13" lengthAdjust="spacing" textLength="21.6836" x="426.4551" y="559.3825">0..1</text></g><!--link Message to User--><g class="link" data-entity-1="ent0005" data-entity-2="ent0003" data-link-type="dependency" data-source-line="58" id="lnk11"><path codeLine="58" d="M454.67,804.25 C454.67,824.83 454.67,839.69 454.67,857.87" fill="none" id="Message-to-User" style="stroke:#181818;stroke-width:1;"/><polygon fill="#181818" points="454.67,863.87,458.67,854.87,454.67,858.87,450.67,854.87,454.67,863.87" style="stroke:#181818;stroke-width:1;"/><text fill="#000000" font-family="sans-serif" font-size="13" lengthAdjust="spacing" textLength="57.0972" x="455.67" y="830.5551">sender_id</text><text fill="#000000" font-family="sans-serif" font-size="13" lengthAdjust="spacing" textLength="19.5127" x="433.5161" y="825.9102">0..*</text><text fill="#000000" font-family="sans-serif" font-size="13" lengthAdjust="spacing" textLength="7.23" x="444.6247" y="853.2711">1</text></g><!--link Message to User--><g class="link" data-entity-1="ent0005" data-entity-2="ent0003" data-link-type="dependency" data-source-line="59" id="lnk12"><path codeLine="59" d="M495.33,804.25 C495.33,824.83 495.33,839.69 495.33,857.87" fill="none" id="Message-to-User-1" style="stroke:#181818;stroke-width:1;"/><polygon fill="#181818" points="495.33,863.87,499.33,854.87,495.33,858.87,491.33,854.87,495.33,863.87" style="stroke:#181818;stroke-width:1;"/><text fill="#000000" font-family="sans-serif" font-size="13" lengthAdjust="spacing" textLength="63.5845" x="496.33" y="848.5551">receiver_id</text><text fill="#000000" font-family="sans-serif" font-size="13" lengthAdjust="spacing" textLength="19.5127" x="497.5574" y="825.9102">0..*</text><text fill="#000000" font-family="sans-serif" font-size="13" lengthAdjust="spacing" textLength="7.23" x="490.4943" y="853.2711">1</text></g><!--link WebRoutes to ContactRequest--><g class="link" data-entity-1="ent0006" data-entity-2="ent0004" data-link-type="dependency" data-source-line="62" id="lnk14"><path codeLine="62" d="M398.25,289.26 C398.25,309.44 398.25,323.78 398.25,342.78" fill="none" id="WebRoutes-to-ContactRequest" style="stroke:#181818;stroke-width:1;stroke-dasharray:7,7;"/><polygon fill="#181818" points="398.25,348.78,402.25,339.78,398.25,343.78,394.25,339.78,398.25,348.78" style="stroke:#181818;stroke-width:1;"/><text fill="#000000" font-family="sans-serif" font-size="13" lengthAdjust="spacing" textLength="103.2954" x="294.25" y="315.5151">CRUD (DB::table)</text></g><!--link WebRoutes to Message--><g class="link" data-entity-1="ent0006" data-entity-2="ent0005" data-link-type="dependency" data-source-line="63" id="lnk15"><path codeLine="63" d="M328.25,289.33 C328.25,453.18 328.25,701 328.25,701 C328.25,701 346.24,701 374.82,701" fill="none" id="WebRoutes-to-Message" style="stroke:#181818;stroke-width:1;stroke-dasharray:7,7;"/><polygon fill="#181818" points="380.82,701,371.82,697,375.82,701,371.82,705,380.82,701" style="stroke:#181818;stroke-width:1;"/><text fill="#000000" font-family="sans-serif" font-size="13" lengthAdjust="spacing" textLength="82.3672" x="245.25" y="517.9451">relation metier</text></g><!--link WebRoutes to RateLimiter--><g class="link" data-entity-1="ent0006" data-entity-2="ent0007" data-link-type="dependency" data-source-line="64" id="lnk16"><path codeLine="64" d="M223.47,148 C173.53,148 126,148 126,148 C126,148 126,345.61 126,414.8" fill="none" id="WebRoutes-to-RateLimiter" style="stroke:#181818;stroke-width:1;stroke-dasharray:7,7;"/><polygon fill="#181818" points="126,420.8,130,411.8,126,415.8,122,411.8,126,420.8" style="stroke:#181818;stroke-width:1;"/><text fill="#000000" font-family="sans-serif" font-size="13" lengthAdjust="spacing" textLength="118.5107" x="7" y="232.1651">anti brute-force login</text></g><!--link WebRoutes to Session--><g class="link" data-entity-1="ent0006" data-entity-2="ent0008" data-link-type="dependency" data-source-line="65" id="lnk17"><path codeLine="65" d="M267,289.26 C267,340.16 267,386.08 267,414.82" fill="none" id="WebRoutes-to-Session" style="stroke:#181818;stroke-width:1;stroke-dasharray:7,7;"/><polygon fill="#181818" points="267,420.82,271,411.82,267,415.82,263,411.82,267,420.82" style="stroke:#181818;stroke-width:1;"/><text fill="#000000" font-family="sans-serif" font-size="13" lengthAdjust="spacing" textLength="85.2681" x="181" y="351.5351">controle admin</text></g><?plantuml-src ZLHDRzf04BtxLunyWaQ6zEf3gYIWAb9GAqZK2n9QsnEyodhNtLatfL7-UmUl3RO1jGV4pfitNszdJQzIbyAA0b8bY6wTipAf73waHg_a7uJhW0uK9JMwNObWhCjDaCiC0OlIxQ308a5BGL2Az5Li4SBRibol5oP3HI6y1-3pmpEXhKs0Avd5aCYjrCxRMXGO0t47UkiHB8HKVQZaB6_6PXtq8pYalpVQYTGjyMU5v2uLghY9pH7ySgbycHizW0eaulbYSFYxoKPEk8hwj7s5qRWNGhNTwNNXyKjD4kgirwQ7BQOeVvrnf7xqZVMpdyxtdwtxkctpRRdMJdi2DoFnK7way0Sci3IyFxJM8riVfc-OJCgy78SW29ZW_VNOLr_dJp0z70hKJXfDaSAjK4W7HscKT99BHbp_XTUEUO8XF32KuKdtrlTlgwvPEqLM3AqfQivLMHh03Yt_uG1b5NAq_3jMQ8Gu0Ysp5eQcxpBxc7fzzvpP_77-D3_BwdNDsdJaN0g7ZxBWGIth-Q1KnT6CUIqxtZPWnNVC2Z9PqgQkvQaD7WI31n9UJoQVGeYYc_huEVGFb3S7bT5RUZBGF9QJIEQQA6epjCiSGove8VGkQ95kYMF-mtR_WzTPzxDCt_IWjnXE7qCG75TlChav3RbVFizWDBkBOoSIXUC1_pYWHINsQyeVFITP-ZwlSodC5Roea5ZsHY_6fWX-CViXpUKqRLkZ4Fp6_WK0?></g></svg>