<?plantuml 1.2026.2?><svg xmlns="http://www.w3.org/2000/svg" xmlns:xlink="http://www.w3.org/1999/xlink" contentStyleType="text/css" data-diagram-type="CLASS" height="700px" preserveAspectRatio="none" style="width:557px;height:700px;background:#FFFFFF;" version="1.1" viewBox="0 0 557 700" width="557px" zoomAndPan="magnify"><defs/><g><!--class users--><g class="entity" data-qualified-name="users" data-source-line="5" id="ent0002"><rect fill="#F1F1F1" height="188.875" rx="2.5" ry="2.5" style="stroke:#181818;stroke-width:0.5;" width="201.8613" x="134" y="7"/><ellipse cx="213.5635" cy="23" fill="#ADD1B2" rx="11" ry="11" style="stroke:#181818;stroke-width:1;"/><path d="M212.4229,23.7969 L212.4229,26.2969 L216.751,26.2969 L216.751,25.375 Q216.751,24.7656 216.9854,24.5 Q217.2354,24.2344 217.6104,24.2344 Q217.9854,24.2344 218.2197,24.5 Q218.4541,24.7656 218.4541,25.375 L218.4541,28 L210.4541,28 Q209.8291,28 209.5635,27.7656 Q209.3135,27.5313 209.3135,27.1406 Q209.3135,26.7656 209.5791,26.5313 Q209.8447,26.2969 210.4541,26.2969 L210.7197,26.2969 L210.7197,19.6406 L210.4541,19.6406 Q209.8291,19.6406 209.5635,19.4063 Q209.3135,19.1719 209.3135,18.7813 Q209.3135,18.4063 209.5635,18.1719 Q209.8291,17.9375 210.4541,17.9375 L218.0791,17.9375 L218.0791,20.5313 Q218.0791,21.1406 217.8447,21.4063 Q217.626,21.6563 217.2354,21.6563 Q216.8604,21.6563 216.626,21.4063 Q216.3916,21.1406 216.3916,20.5313 L216.3916,19.6406 L212.4229,19.6406 L212.4229,22.0938 L213.9072,22.0938 Q213.9072,21.4375 214.0322,21.25 Q214.2979,20.8438 214.7666,20.8438 Q215.1416,20.8438 215.376,21.1094 Q215.6104,21.3594 215.6104,21.9688 L215.6104,23.9375 Q215.6104,24.4844 215.4854,24.6719 Q215.2197,25.0625 214.7666,25.0625 Q214.2979,25.0625 214.0322,24.6563 Q213.9072,24.4688 213.9072,23.7969 L212.4229,23.7969 Z " fill="#000000"/><text fill="#000000" font-family="sans-serif" font-size="14" lengthAdjust="spacing" textLength="34.2344" x="234.0635" y="28.7285">users</text><line style="stroke:#181818;stroke-width:0.5;" x1="135" x2="334.8613" y1="39" y2="39"/><g data-visibility-modifier="IE_MANDATORY"><ellipse cx="145" cy="53.3047" fill="#000000" rx="3" ry="3" style="stroke:#000000;stroke-width:1;"/></g><text fill="#000000" font-family="sans-serif" font-size="14" lengthAdjust="spacing" textLength="94.1719" x="154" y="57.5332">id : bigint &#171;PK&#187;</text><line style="stroke:#181818;stroke-width:1;" x1="135" x2="334.8613" y1="64.6094" y2="64.6094"/><text fill="#000000" font-family="sans-serif" font-size="14" lengthAdjust="spacing" textLength="80.9238" x="140" y="83.1426">name : string</text><text fill="#000000" font-family="sans-serif" font-size="14" lengthAdjust="spacing" textLength="119.8203" x="140" y="100.752">email : string &#171;UQ&#187;</text><text fill="#000000" font-family="sans-serif" font-size="14" lengthAdjust="spacing" textLength="189.8613" x="140" y="118.3613">email_verified_at : timestamp?</text><text fill="#000000" font-family="sans-serif" font-size="14" lengthAdjust="spacing" textLength="105.8203" x="140" y="135.9707">password : string</text><text fill="#000000" font-family="sans-serif" font-size="14" lengthAdjust="spacing" textLength="159.5166" x="140" y="153.5801">remember_token : string?</text><text fill="#000000" font-family="sans-serif" font-size="14" lengthAdjust="spacing" textLength="142.3994" x="140" y="171.1895">created_at : timestamp</text><text fill="#000000" font-family="sans-serif" font-size="14" lengthAdjust="spacing" textLength="146.3096" x="140" y="188.7988">updated_at : timestamp</text></g><!--class contact_requests--><g class="entity" data-qualified-name="contact_requests" data-source-line="17" id="ent0003"><rect fill="#F1F1F1" height="188.875" rx="2.5" ry="2.5" style="stroke:#181818;stroke-width:0.5;" width="158.3096" x="7" y="256"/><ellipse cx="30.8603" cy="272" fill="#ADD1B2" rx="11" ry="11" style="stroke:#181818;stroke-width:1;"/><path d="M29.7196,272.7969 L29.7196,275.2969 L34.0478,275.2969 L34.0478,274.375 Q34.0478,273.7656 34.2821,273.5 Q34.5321,273.2344 34.9071,273.2344 Q35.2821,273.2344 35.5165,273.5 Q35.7509,273.7656 35.7509,274.375 L35.7509,277 L27.7509,277 Q27.1259,277 26.8603,276.7656 Q26.6103,276.5313 26.6103,276.1406 Q26.6103,275.7656 26.8759,275.5313 Q27.1415,275.2969 27.7509,275.2969 L28.0165,275.2969 L28.0165,268.6406 L27.7509,268.6406 Q27.1259,268.6406 26.8603,268.4063 Q26.6103,268.1719 26.6103,267.7813 Q26.6103,267.4063 26.8603,267.1719 Q27.1259,266.9375 27.7509,266.9375 L35.3759,266.9375 L35.3759,269.5313 Q35.3759,270.1406 35.1415,270.4063 Q34.9228,270.6563 34.5321,270.6563 Q34.1571,270.6563 33.9228,270.4063 Q33.6884,270.1406 33.6884,269.5313 L33.6884,268.6406 L29.7196,268.6406 L29.7196,271.0938 L31.204,271.0938 Q31.204,270.4375 31.329,270.25 Q31.5946,269.8438 32.0634,269.8438 Q32.4384,269.8438 32.6728,270.1094 Q32.9071,270.3594 32.9071,270.9688 L32.9071,272.9375 Q32.9071,273.4844 32.7821,273.6719 Q32.5165,274.0625 32.0634,274.0625 Q31.5946,274.0625 31.329,273.6563 Q31.204,273.4688 31.204,272.7969 L29.7196,272.7969 Z " fill="#000000"/><text fill="#000000" font-family="sans-serif" font-size="14" lengthAdjust="spacing" textLength="106.6201" x="46.8292" y="277.7285">contact_requests</text><line style="stroke:#181818;stroke-width:0.5;" x1="8" x2="164.3096" y1="288" y2="288"/><g data-visibility-modifier="IE_MANDATORY"><ellipse cx="18" cy="302.3047" fill="#000000" rx="3" ry="3" style="stroke:#000000;stroke-width:1;"/></g><text fill="#000000" font-family="sans-serif" font-size="14" lengthAdjust="spacing" textLength="94.1719" x="27" y="306.5332">id : bigint &#171;PK&#187;</text><line style="stroke:#181818;stroke-width:1;" x1="8" x2="164.3096" y1="313.6094" y2="313.6094"/><text fill="#000000" font-family="sans-serif" font-size="14" lengthAdjust="spacing" textLength="136.1924" x="13" y="332.1426">user_id : bigint? &#171;FK&#187;</text><text fill="#000000" font-family="sans-serif" font-size="14" lengthAdjust="spacing" textLength="80.9238" x="13" y="349.752">name : string</text><text fill="#000000" font-family="sans-serif" font-size="14" lengthAdjust="spacing" textLength="109.7305" x="13" y="367.3613">phone : string(20)</text><text fill="#000000" font-family="sans-serif" font-size="14" lengthAdjust="spacing" textLength="91.041" x="13" y="384.9707">message : text</text><text fill="#000000" font-family="sans-serif" font-size="14" lengthAdjust="spacing" textLength="108.1514" x="13" y="402.5801">status : string(20)</text><text fill="#000000" font-family="sans-serif" font-size="14" lengthAdjust="spacing" textLength="142.3994" x="13" y="420.1895">created_at : timestamp</text><text fill="#000000" font-family="sans-serif" font-size="14" lengthAdjust="spacing" textLength="146.3096" x="13" y="437.7988">updated_at : timestamp</text></g><!--class messages--><g class="entity" data-qualified-name="messages" data-source-line="29" id="ent0004"><rect fill="#F1F1F1" height="188.875" rx="2.5" ry="2.5" style="stroke:#181818;stroke-width:0.5;" width="220.5781" x="124.5" y="505"/><ellipse cx="198.6357" cy="521" fill="#ADD1B2" rx="11" ry="11" style="stroke:#181818;stroke-width:1;"/><path d="M197.4951,521.7969 L197.4951,524.2969 L201.8232,524.2969 L201.8232,523.375 Q201.8232,522.7656 202.0576,522.5 Q202.3076,522.2344 202.6826,522.2344 Q203.0576,522.2344 203.292,522.5 Q203.5264,522.7656 203.5264,523.375 L203.5264,526 L195.5264,526 Q194.9014,526 194.6357,525.7656 Q194.3857,525.5313 194.3857,525.1406 Q194.3857,524.7656 194.6514,524.5313 Q194.917,524.2969 195.5264,524.2969 L195.792,524.2969 L195.792,517.6406 L195.5264,517.6406 Q194.9014,517.6406 194.6357,517.4063 Q194.3857,517.1719 194.3857,516.7813 Q194.3857,516.4063 194.6357,516.1719 Q194.9014,515.9375 195.5264,515.9375 L203.1514,515.9375 L203.1514,518.5313 Q203.1514,519.1406 202.917,519.4063 Q202.6982,519.6563 202.3076,519.6563 Q201.9326,519.6563 201.6982,519.4063 Q201.4639,519.1406 201.4639,518.5313 L201.4639,517.6406 L197.4951,517.6406 L197.4951,520.0938 L198.9795,520.0938 Q198.9795,519.4375 199.1045,519.25 Q199.3701,518.8438 199.8389,518.8438 Q200.2139,518.8438 200.4482,519.1094 Q200.6826,519.3594 200.6826,519.9688 L200.6826,521.9375 Q200.6826,522.4844 200.5576,522.6719 Q200.292,523.0625 199.8389,523.0625 Q199.3701,523.0625 199.1045,522.6563 Q198.9795,522.4688 198.9795,521.7969 L197.4951,521.7969 Z " fill="#000000"/><text fill="#000000" font-family="sans-serif" font-size="14" lengthAdjust="spacing" textLength="63.8066" x="219.1357" y="526.7285">messages</text><line style="stroke:#181818;stroke-width:0.5;" x1="125.5" x2="344.0781" y1="537" y2="537"/><g data-visibility-modifier="IE_MANDATORY"><ellipse cx="135.5" cy="551.3047" fill="#000000" rx="3" ry="3" style="stroke:#000000;stroke-width:1;"/></g><text fill="#000000" font-family="sans-serif" font-size="14" lengthAdjust="spacing" textLength="94.1719" x="144.5" y="555.5332">id : bigint &#171;PK&#187;</text><line style="stroke:#181818;stroke-width:1;" x1="125.5" x2="344.0781" y1="562.6094" y2="562.6094"/><text fill="#000000" font-family="sans-serif" font-size="14" lengthAdjust="spacing" textLength="143.9785" x="130.5" y="581.1426">sender_id : bigint &#171;FK&#187;</text><text fill="#000000" font-family="sans-serif" font-size="14" lengthAdjust="spacing" textLength="150.9648" x="130.5" y="598.752">receiver_id : bigint &#171;FK&#187;</text><text fill="#000000" font-family="sans-serif" font-size="14" lengthAdjust="spacing" textLength="208.5781" x="130.5" y="616.3613">contact_request_id : bigint? &#171;FK&#187;</text><text fill="#000000" font-family="sans-serif" font-size="14" lengthAdjust="spacing" textLength="91.041" x="130.5" y="633.9707">message : text</text><text fill="#000000" font-family="sans-serif" font-size="14" lengthAdjust="spacing" textLength="108.1514" x="130.5" y="651.5801">status : string(20)</text><text fill="#000000" font-family="sans-serif" font-size="14" lengthAdjust="spacing" textLength="142.3994" x="130.5" y="669.1895">created_at : timestamp</text><text fill="#000000" font-family="sans-serif" font-size="14" lengthAdjust="spacing" textLength="146.3096" x="130.5" y="686.7988">updated_at : timestamp</text></g><!--class sessions--><g class="entity" data-qualified-name="sessions" data-source-line="41" id="ent0005"><rect fill="#F1F1F1" height="153.6563" rx="2.5" ry="2.5" style="stroke:#181818;stroke-width:0.5;" width="134.1787" x="305" y="273.5"/><ellipse cx="341.4695" cy="289.5" fill="#ADD1B2" rx="11" ry="11" style="stroke:#181818;stroke-width:1;"/><path d="M340.3289,290.2969 L340.3289,292.7969 L344.657,292.7969 L344.657,291.875 Q344.657,291.2656 344.8914,291 Q345.1414,290.7344 345.5164,290.7344 Q345.8914,290.7344 346.1257,291 Q346.3601,291.2656 346.3601,291.875 L346.3601,294.5 L338.3601,294.5 Q337.7351,294.5 337.4695,294.2656 Q337.2195,294.0313 337.2195,293.6406 Q337.2195,293.2656 337.4851,293.0313 Q337.7507,292.7969 338.3601,292.7969 L338.6257,292.7969 L338.6257,286.1406 L338.3601,286.1406 Q337.7351,286.1406 337.4695,285.9063 Q337.2195,285.6719 337.2195,285.2813 Q337.2195,284.9063 337.4695,284.6719 Q337.7351,284.4375 338.3601,284.4375 L345.9851,284.4375 L345.9851,287.0313 Q345.9851,287.6406 345.7507,287.9063 Q345.532,288.1563 345.1414,288.1563 Q344.7664,288.1563 344.532,287.9063 Q344.2976,287.6406 344.2976,287.0313 L344.2976,286.1406 L340.3289,286.1406 L340.3289,288.5938 L341.8132,288.5938 Q341.8132,287.9375 341.9382,287.75 Q342.2039,287.3438 342.6726,287.3438 Q343.0476,287.3438 343.282,287.6094 Q343.5164,287.8594 343.5164,288.4688 L343.5164,290.4375 Q343.5164,290.9844 343.3914,291.1719 Q343.1257,291.5625 342.6726,291.5625 Q342.2039,291.5625 341.9382,291.1563 Q341.8132,290.9688 341.8132,290.2969 L340.3289,290.2969 Z " fill="#000000"/><text fill="#000000" font-family="sans-serif" font-size="14" lengthAdjust="spacing" textLength="54.4688" x="360.2405" y="295.2285">sessions</text><line style="stroke:#181818;stroke-width:0.5;" x1="306" x2="438.1787" y1="305.5" y2="305.5"/><g data-visibility-modifier="IE_MANDATORY"><ellipse cx="316" cy="319.8047" fill="#000000" rx="3" ry="3" style="stroke:#000000;stroke-width:1;"/></g><text fill="#000000" font-family="sans-serif" font-size="14" lengthAdjust="spacing" textLength="94.9375" x="325" y="324.0332">id : string &#171;PK&#187;</text><line style="stroke:#181818;stroke-width:1;" x1="306" x2="438.1787" y1="331.1094" y2="331.1094"/><text fill="#000000" font-family="sans-serif" font-size="14" lengthAdjust="spacing" textLength="98.8408" x="311" y="349.6426">user_id : bigint?</text><text fill="#000000" font-family="sans-serif" font-size="14" lengthAdjust="spacing" textLength="122.1787" x="311" y="367.252">ip_address : string?</text><text fill="#000000" font-family="sans-serif" font-size="14" lengthAdjust="spacing" textLength="112.0752" x="311" y="384.8613">user_agent : text?</text><text fill="#000000" font-family="sans-serif" font-size="14" lengthAdjust="spacing" textLength="109.7441" x="311" y="402.4707">payload : longtext</text><text fill="#000000" font-family="sans-serif" font-size="14" lengthAdjust="spacing" textLength="98.8135" x="311" y="420.0801">last_activity : int</text></g><!--class prt--><g class="entity" data-qualified-name="prt" data-source-line="51" id="ent0006"><rect fill="#F1F1F1" height="100.8281" rx="2.5" ry="2.5" style="stroke:#181818;stroke-width:0.5;" width="179.8613" x="371" y="51"/><ellipse cx="386" cy="67" fill="#ADD1B2" rx="11" ry="11" style="stroke:#181818;stroke-width:1;"/><path d="M384.8594,67.7969 L384.8594,70.2969 L389.1875,70.2969 L389.1875,69.375 Q389.1875,68.7656 389.4219,68.5 Q389.6719,68.2344 390.0469,68.2344 Q390.4219,68.2344 390.6563,68.5 Q390.8906,68.7656 390.8906,69.375 L390.8906,72 L382.8906,72 Q382.2656,72 382,71.7656 Q381.75,71.5313 381.75,71.1406 Q381.75,70.7656 382.0156,70.5313 Q382.2813,70.2969 382.8906,70.2969 L383.1563,70.2969 L383.1563,63.6406 L382.8906,63.6406 Q382.2656,63.6406 382,63.4063 Q381.75,63.1719 381.75,62.7813 Q381.75,62.4063 382,62.1719 Q382.2656,61.9375 382.8906,61.9375 L390.5156,61.9375 L390.5156,64.5313 Q390.5156,65.1406 390.2813,65.4063 Q390.0625,65.6563 389.6719,65.6563 Q389.2969,65.6563 389.0625,65.4063 Q388.8281,65.1406 388.8281,64.5313 L388.8281,63.6406 L384.8594,63.6406 L384.8594,66.0938 L386.3438,66.0938 Q386.3438,65.4375 386.4688,65.25 Q386.7344,64.8438 387.2031,64.8438 Q387.5781,64.8438 387.8125,65.1094 Q388.0469,65.3594 388.0469,65.9688 L388.0469,67.9375 Q388.0469,68.4844 387.9219,68.6719 Q387.6563,69.0625 387.2031,69.0625 Q386.7344,69.0625 386.4688,68.6563 Q386.3438,68.4688 386.3438,67.7969 L384.8594,67.7969 Z " fill="#000000"/><text fill="#000000" font-family="sans-serif" font-size="14" lengthAdjust="spacing" textLength="147.8613" x="400" y="72.7285">password_reset_tokens</text><line style="stroke:#181818;stroke-width:0.5;" x1="372" x2="549.8613" y1="83" y2="83"/><g data-visibility-modifier="IE_MANDATORY"><ellipse cx="382" cy="97.3047" fill="#000000" rx="3" ry="3" style="stroke:#000000;stroke-width:1;"/></g><text fill="#000000" font-family="sans-serif" font-size="14" lengthAdjust="spacing" textLength="117.4961" x="391" y="101.5332">email : string &#171;PK&#187;</text><line style="stroke:#181818;stroke-width:1;" x1="372" x2="549.8613" y1="108.6094" y2="108.6094"/><text fill="#000000" font-family="sans-serif" font-size="14" lengthAdjust="spacing" textLength="80.1514" x="377" y="127.1426">token : string</text><text fill="#000000" font-family="sans-serif" font-size="14" lengthAdjust="spacing" textLength="150.1855" x="377" y="144.752">created_at : timestamp?</text></g><!--link users to contact_requests--><g class="link" data-entity-1="ent0002" data-entity-2="ent0003" data-link-type="crowfoot" data-source-line="58" id="lnk7"><path codeLine="58" d="M149.5,204.35 C149.5,223.86 149.5,218.41 149.5,237.92" fill="none" id="users-contact_requests" style="stroke:#181818;stroke-width:1;"/><line style="stroke:#181818;stroke-width:1;" x1="145.5" x2="153.5" y1="200.35" y2="200.35"/><line style="stroke:#181818;stroke-width:1;" x1="145.5" x2="153.5" y1="203.35" y2="203.35"/><line style="stroke:#181818;stroke-width:1;" x1="149.5" x2="149.5" y1="204.35" y2="196.35"/><line style="stroke:#181818;stroke-width:1;" x1="149.5" x2="155.5" y1="247.92" y2="255.92"/><line style="stroke:#181818;stroke-width:1;" x1="149.5" x2="143.5" y1="247.92" y2="255.92"/><line style="stroke:#181818;stroke-width:1;" x1="149.5" x2="149.5" y1="247.92" y2="255.92"/><ellipse cx="149.5" cy="241.92" fill="none" rx="4" ry="4" style="stroke:#181818;stroke-width:1;"/><text fill="#000000" font-family="sans-serif" font-size="13" lengthAdjust="spacing" textLength="117.0381" x="31.5" y="222.6251">user_id (SET NULL)</text></g><!--link users to messages--><g class="link" data-entity-1="ent0002" data-entity-2="ent0004" data-link-type="crowfoot" data-source-line="59" id="lnk8"><path codeLine="59" d="M258.33,204.05 C258.33,292.63 258.33,398.3 258.33,486.9" fill="none" id="users-messages" style="stroke:#181818;stroke-width:1;"/><line style="stroke:#181818;stroke-width:1;" x1="254.33" x2="262.33" y1="200.05" y2="200.05"/><line style="stroke:#181818;stroke-width:1;" x1="254.33" x2="262.33" y1="203.05" y2="203.05"/><line style="stroke:#181818;stroke-width:1;" x1="258.33" x2="258.33" y1="204.05" y2="196.05"/><line style="stroke:#181818;stroke-width:1;" x1="258.33" x2="264.33" y1="496.9" y2="504.9"/><line style="stroke:#181818;stroke-width:1;" x1="258.33" x2="252.33" y1="496.9" y2="504.9"/><line style="stroke:#181818;stroke-width:1;" x1="258.33" x2="258.33" y1="496.9" y2="504.9"/><ellipse cx="258.33" cy="490.9" fill="none" rx="4" ry="4" style="stroke:#181818;stroke-width:1;"/><text fill="#000000" font-family="sans-serif" font-size="13" lengthAdjust="spacing" textLength="57.0972" x="200.33" y="346.9651">sender_id</text></g><!--link users to messages--><g class="link" data-entity-1="ent0002" data-entity-2="ent0004" data-link-type="crowfoot" data-source-line="60" id="lnk9"><path codeLine="60" d="M211.67,204.05 C211.67,292.63 211.67,398.3 211.67,486.9" fill="none" id="users-messages-1" style="stroke:#181818;stroke-width:1;"/><line style="stroke:#181818;stroke-width:1;" x1="207.67" x2="215.67" y1="200.05" y2="200.05"/><line style="stroke:#181818;stroke-width:1;" x1="207.67" x2="215.67" y1="203.05" y2="203.05"/><line style="stroke:#181818;stroke-width:1;" x1="211.67" x2="211.67" y1="204.05" y2="196.05"/><line style="stroke:#181818;stroke-width:1;" x1="211.67" x2="217.67" y1="496.9" y2="504.9"/><line style="stroke:#181818;stroke-width:1;" x1="211.67" x2="205.67" y1="496.9" y2="504.9"/><line style="stroke:#181818;stroke-width:1;" x1="211.67" x2="211.67" y1="496.9" y2="504.9"/><ellipse cx="211.67" cy="490.9" fill="none" rx="4" ry="4" style="stroke:#181818;stroke-width:1;"/><text fill="#000000" font-family="sans-serif" font-size="13" lengthAdjust="spacing" textLength="63.5845" x="212.67" y="364.9651">receiver_id</text></g><!--link contact_requests to messages--><g class="link" data-entity-1="ent0003" data-entity-2="ent0004" data-link-type="crowfoot" data-source-line="61" id="lnk10"><path codeLine="61" d="M144.75,453.35 C144.75,472.86 144.75,467.41 144.75,486.92" fill="none" id="contact_requests-messages" style="stroke:#181818;stroke-width:1;"/><line style="stroke:#181818;stroke-width:1;" x1="140.75" x2="148.75" y1="449.35" y2="449.35"/><line style="stroke:#181818;stroke-width:1;" x1="140.75" x2="148.75" y1="452.35" y2="452.35"/><line style="stroke:#181818;stroke-width:1;" x1="144.75" x2="144.75" y1="453.35" y2="445.35"/><line style="stroke:#181818;stroke-width:1;" x1="144.75" x2="150.75" y1="496.92" y2="504.92"/><line style="stroke:#181818;stroke-width:1;" x1="144.75" x2="138.75" y1="496.92" y2="504.92"/><line style="stroke:#181818;stroke-width:1;" x1="144.75" x2="144.75" y1="496.92" y2="504.92"/><ellipse cx="144.75" cy="490.92" fill="none" rx="4" ry="4" style="stroke:#181818;stroke-width:1;"/><text fill="#000000" font-family="sans-serif" font-size="13" lengthAdjust="spacing" textLength="109.8525" x="34.75" y="471.6251">contact_request_id</text></g><!--link users to sessions--><g class="link" data-entity-1="ent0002" data-entity-2="ent0005" data-link-type="crowfoot" data-source-line="62" id="lnk11"><path codeLine="62" d="M320.5,204.35 C320.5,229.77 320.5,230.95 320.5,255.29" fill="none" id="users-sessions" style="stroke:#181818;stroke-width:1;"/><line style="stroke:#181818;stroke-width:1;" x1="316.5" x2="324.5" y1="200.35" y2="200.35"/><line style="stroke:#181818;stroke-width:1;" x1="316.5" x2="324.5" y1="203.35" y2="203.35"/><line style="stroke:#181818;stroke-width:1;" x1="320.5" x2="320.5" y1="204.35" y2="196.35"/><line style="stroke:#181818;stroke-width:1;" x1="320.5" x2="326.5" y1="265.29" y2="273.29"/><line style="stroke:#181818;stroke-width:1;" x1="320.5" x2="314.5" y1="265.29" y2="273.29"/><line style="stroke:#181818;stroke-width:1;" x1="320.5" x2="320.5" y1="265.29" y2="273.29"/><ellipse cx="320.5" cy="259.29" fill="none" rx="4" ry="4" style="stroke:#181818;stroke-width:1;"/><text fill="#000000" font-family="sans-serif" font-size="13" lengthAdjust="spacing" textLength="42.6372" x="277.5" y="231.3151">user_id</text></g><?plantuml-src jLFBJiCm4BpdAwoUMgH8Y6DKjIUuK24Gz1ovyT9OZUrWRmfLox-pYTiy2HmGboYU6QztrkDK2c0AC3N21McvS0WM31voS87RIPrponNBf8OIOyQIDWX0eyG3cnGEh9imxbZrnuu1OrTIi8Xjv5PgPFFvu_rYGMWOqaTp1SGvj59lQGsAowm6IBn-giGL7k_1obS98kP86fGA77ALBqcGS-VUZHNjOXOKg0tO6CqETCsKyiG2nq4X8efSV4TyDWuJev4d65juAuZrPllWRxxBuSGjUadydUVx8ybJenjWUdCz8v3wSdnRmWWVI02rYONho_vWyto2jtTP_6RBWHPTOuql2md8_HZR6-38RFxVjgCJfD7UzcNHibq7yyVR94pcCHV2KeLEy2efMT1uDk73UyWCB_TdHc_FrZ9EOw2Ho7tPMCIeRhlHI-1fOWxGHzntdLlq3GyUKxldxfiO7TgoFDC_vTCf3Crn6FMezZzzldrX3-lLQjRTKiSdQX8ogcZb91YSDPGFWzEjNDzXtMRm1G00?></g></svg>