<?plantuml 1.2026.2?><svg xmlns="http://www.w3.org/2000/svg" xmlns:xlink="http://www.w3.org/1999/xlink" contentStyleType="text/css" data-diagram-type="SEQUENCE" height="801px" preserveAspectRatio="none" style="width:1237px;height:801px;background:#FFFFFF;" version="1.1" viewBox="0 0 1237 801" width="1237px" zoomAndPan="magnify"><defs/><g><rect fill="none" height="398.8906" style="stroke:#000000;stroke-width:1.5;" width="936.2324" x="10" y="234.0156"/><rect fill="none" height="216.2969" style="stroke:#000000;stroke-width:1.5;" width="916.2324" x="20" y="409.6094"/><g class="participant-lifeline" data-entity-uid="part1" data-qualified-name="Admin" id="part1-lifeline"><g><title>Admin</title><rect fill="#000000" fill-opacity="0.00000" height="636.3516" width="8" x="48.8413" y="82.6094"/><line style="stroke:#181818;stroke-width:0.5;stroke-dasharray:5,5;" x1="52" x2="52" y1="82.6094" y2="718.9609"/></g></g><g class="participant-lifeline" data-entity-uid="part2" data-qualified-name="Router" id="part2-lifeline"><g><title>Laravel Router</title><rect fill="#000000" fill-opacity="0.00000" height="636.3516" width="8" x="287.0947" y="82.6094"/><line style="stroke:#181818;stroke-width:0.5;stroke-dasharray:5,5;" x1="290.1812" x2="290.1812" y1="82.6094" y2="718.9609"/></g></g><g class="participant-lifeline" data-entity-uid="part3" data-qualified-name="LoginRoute" id="part3-lifeline"><g><title>Route POST .login</title><rect fill="#000000" fill-opacity="0.00000" height="636.3516" width="8" x="455.3701" y="82.6094"/><line style="stroke:#181818;stroke-width:0.5;stroke-dasharray:5,5;" x1="459.0083" x2="459.0083" y1="82.6094" y2="718.9609"/></g></g><g class="participant-lifeline" data-entity-uid="part4" data-qualified-name="RL" id="part4-lifeline"><g><title>RateLimiter</title><rect fill="#000000" fill-opacity="0.00000" height="636.3516" width="8" x="745.6362" y="82.6094"/><line style="stroke:#181818;stroke-width:0.5;stroke-dasharray:5,5;" x1="748.8467" x2="748.8467" y1="82.6094" y2="718.9609"/></g></g><g class="participant-lifeline" data-entity-uid="part5" data-qualified-name="Session" id="part5-lifeline"><g><title>Session</title><rect fill="#000000" fill-opacity="0.00000" height="636.3516" width="8" x="870.3291" y="82.6094"/><line style="stroke:#181818;stroke-width:0.5;stroke-dasharray:5,5;" x1="873.4258" x2="873.4258" y1="82.6094" y2="718.9609"/></g></g><g class="participant-lifeline" data-entity-uid="part6" data-qualified-name="DB" id="part6-lifeline"><g><title>MySQL</title><rect fill="#000000" fill-opacity="0.00000" height="636.3516" width="8" x="958.5703" y="82.6094"/><line style="stroke:#181818;stroke-width:0.5;stroke-dasharray:5,5;" x1="962.2324" x2="962.2324" y1="82.6094" y2="718.9609"/></g></g><g class="participant participant-head" data-entity-uid="part1" data-qualified-name="Admin" id="part1-head"><text fill="#000000" font-family="sans-serif" font-size="14" lengthAdjust="spacing" textLength="39.6826" x="30" y="79.5332">Admin</text><ellipse cx="52.8413" cy="13.5" fill="#E2E2F0" rx="8" ry="8" style="stroke:#181818;stroke-width:0.5;"/><path d="M52.8413,21.5 L52.8413,48.5 M39.8413,29.5 L65.8413,29.5 M52.8413,48.5 L39.8413,63.5 M52.8413,48.5 L65.8413,63.5" fill="none" style="stroke:#181818;stroke-width:0.5;"/></g><g class="participant participant-tail" data-entity-uid="part1" data-qualified-name="Admin" id="part1-tail"><text fill="#000000" font-family="sans-serif" font-size="14" lengthAdjust="spacing" textLength="39.6826" x="30" y="732.4941">Admin</text><ellipse cx="52.8413" cy="744.0703" fill="#E2E2F0" rx="8" ry="8" style="stroke:#181818;stroke-width:0.5;"/><path d="M52.8413,752.0703 L52.8413,779.0703 M39.8413,760.0703 L65.8413,760.0703 M52.8413,779.0703 L39.8413,794.0703 M52.8413,779.0703 L65.8413,794.0703" fill="none" style="stroke:#181818;stroke-width:0.5;"/></g><g class="participant participant-head" data-entity-uid="part2" data-qualified-name="Router" id="part2-head"><rect fill="#E2E2F0" height="31.6094" rx="2.5" ry="2.5" style="stroke:#181818;stroke-width:0.5;" width="105.8271" x="238.1812" y="50"/><text fill="#000000" font-family="sans-serif" font-size="14" lengthAdjust="spacing" textLength="91.8271" x="245.1812" y="71.5332">Laravel Router</text></g><g class="participant participant-tail" data-entity-uid="part2" data-qualified-name="Router" id="part2-tail"><rect fill="#E2E2F0" height="31.6094" rx="2.5" ry="2.5" style="stroke:#181818;stroke-width:0.5;" width="105.8271" x="238.1812" y="717.9609"/><text fill="#000000" font-family="sans-serif" font-size="14" lengthAdjust="spacing" textLength="91.8271" x="245.1812" y="739.4941">Laravel Router</text></g><g class="participant participant-head" data-entity-uid="part3" data-qualified-name="LoginRoute" id="part3-head"><rect fill="#E2E2F0" height="49.2188" rx="2.5" ry="2.5" style="stroke:#181818;stroke-width:0.5;" width="130.7236" x="394.0083" y="32.3906"/><text fill="#000000" font-family="sans-serif" font-size="14" lengthAdjust="spacing" textLength="116.7236" x="401.0083" y="53.9238">Route POST /login</text><text fill="#000000" font-family="sans-serif" font-size="14" lengthAdjust="spacing" textLength="54.4551" x="432.1426" y="71.5332">(closure)</text></g><g class="participant participant-tail" data-entity-uid="part3" data-qualified-name="LoginRoute" id="part3-tail"><rect fill="#E2E2F0" height="49.2188" rx="2.5" ry="2.5" style="stroke:#181818;stroke-width:0.5;" width="130.7236" x="394.0083" y="717.9609"/><text fill="#000000" font-family="sans-serif" font-size="14" lengthAdjust="spacing" textLength="116.7236" x="401.0083" y="739.4941">Route POST /login</text><text fill="#000000" font-family="sans-serif" font-size="14" lengthAdjust="spacing" textLength="54.4551" x="432.1426" y="757.1035">(closure)</text></g><g class="participant participant-head" data-entity-uid="part4" data-qualified-name="RL" id="part4-head"><rect fill="#E2E2F0" height="31.6094" rx="2.5" ry="2.5" style="stroke:#181818;stroke-width:0.5;" width="85.5791" x="706.8467" y="50"/><text fill="#000000" font-family="sans-serif" font-size="14" lengthAdjust="spacing" textLength="71.5791" x="713.8467" y="71.5332">RateLimiter</text></g><g class="participant participant-tail" data-entity-uid="part4" data-qualified-name="RL" id="part4-tail"><rect fill="#E2E2F0" height="31.6094" rx="2.5" ry="2.5" style="stroke:#181818;stroke-width:0.5;" width="85.5791" x="706.8467" y="717.9609"/><text fill="#000000" font-family="sans-serif" font-size="14" lengthAdjust="spacing" textLength="71.5791" x="713.8467" y="739.4941">RateLimiter</text></g><g class="participant participant-head" data-entity-uid="part5" data-qualified-name="Session" id="part5-head"><rect fill="#E2E2F0" height="31.6094" rx="2.5" ry="2.5" style="stroke:#181818;stroke-width:0.5;" width="63.8066" x="842.4258" y="50"/><text fill="#000000" font-family="sans-serif" font-size="14" lengthAdjust="spacing" textLength="49.8066" x="849.4258" y="71.5332">Session</text></g><g class="participant participant-tail" data-entity-uid="part5" data-qualified-name="Session" id="part5-tail"><rect fill="#E2E2F0" height="31.6094" rx="2.5" ry="2.5" style="stroke:#181818;stroke-width:0.5;" width="63.8066" x="842.4258" y="717.9609"/><text fill="#000000" font-family="sans-serif" font-size="14" lengthAdjust="spacing" textLength="49.8066" x="849.4258" y="739.4941">Session</text></g><g class="participant participant-head" data-entity-uid="part6" data-qualified-name="DB" id="part6-head"><text fill="#000000" font-family="sans-serif" font-size="14" lengthAdjust="spacing" textLength="46.6758" x="936.2324" y="79.5332">MySQL</text><path d="M944.5703,29 C944.5703,19 962.5703,19 962.5703,19 C962.5703,19 980.5703,19 980.5703,29 L980.5703,55 C980.5703,65 962.5703,65 962.5703,65 C962.5703,65 944.5703,65 944.5703,55 L944.5703,29" fill="#E2E2F0" style="stroke:#181818;stroke-width:0.5;"/><path d="M944.5703,29 C944.5703,39 962.5703,39 962.5703,39 C962.5703,39 980.5703,39 980.5703,29" fill="none" style="stroke:#181818;stroke-width:0.5;"/></g><g class="participant participant-tail" data-entity-uid="part6" data-qualified-name="DB" id="part6-tail"><text fill="#000000" font-family="sans-serif" font-size="14" lengthAdjust="spacing" textLength="46.6758" x="936.2324" y="732.4941">MySQL</text><path d="M944.5703,745.5703 C944.5703,735.5703 962.5703,735.5703 962.5703,735.5703 C962.5703,735.5703 980.5703,735.5703 980.5703,745.5703 L980.5703,771.5703 C980.5703,781.5703 962.5703,781.5703 962.5703,781.5703 C962.5703,781.5703 944.5703,781.5703 944.5703,771.5703 L944.5703,745.5703" fill="#E2E2F0" style="stroke:#181818;stroke-width:0.5;"/><path d="M944.5703,745.5703 C944.5703,755.5703 962.5703,755.5703 962.5703,755.5703 C962.5703,755.5703 980.5703,755.5703 980.5703,745.5703" fill="none" style="stroke:#181818;stroke-width:0.5;"/></g><g class="message" data-entity-1="part1" data-entity-2="part2" id="msg1"><polygon fill="#181818" points="279.0947,110.9609,289.0947,114.9609,279.0947,118.9609,283.0947,114.9609" style="stroke:#181818;stroke-width:1;"/><line style="stroke:#181818;stroke-width:1;" x1="52.8413" x2="285.0947" y1="114.9609" y2="114.9609"/><text fill="#000000" font-family="sans-serif" font-size="13" font-weight="bold" lengthAdjust="spacing" textLength="7.23" x="64.8413" y="110.1045">1</text><text fill="#000000" font-family="sans-serif" font-size="13" lengthAdjust="spacing" textLength="203.0234" x="76.0713" y="110.1045">POST /login (username, password)</text></g><g class="message" data-entity-1="part2" data-entity-2="part3" id="msg2"><polygon fill="#181818" points="447.3701,141.3125,457.3701,145.3125,447.3701,149.3125,451.3701,145.3125" style="stroke:#181818;stroke-width:1;"/><line style="stroke:#181818;stroke-width:1;" x1="291.0947" x2="453.3701" y1="145.3125" y2="145.3125"/><text fill="#000000" font-family="sans-serif" font-size="13" font-weight="bold" lengthAdjust="spacing" textLength="7.23" x="321.9275" y="140.4561">2</text><text fill="#000000" font-family="sans-serif" font-size="13" lengthAdjust="spacing" textLength="95.3799" x="333.1575" y="140.4561">executer closure</text></g><g class="message" data-entity-1="part3" data-entity-2="part3" id="msg3"><line style="stroke:#181818;stroke-width:1;" x1="459.3701" x2="501.3701" y1="175.6641" y2="175.6641"/><line style="stroke:#181818;stroke-width:1;" x1="501.3701" x2="501.3701" y1="175.6641" y2="188.6641"/><line style="stroke:#181818;stroke-width:1;" x1="460.3701" x2="501.3701" y1="188.6641" y2="188.6641"/><polygon fill="#181818" points="470.3701,184.6641,460.3701,188.6641,470.3701,192.6641,466.3701,188.6641" style="stroke:#181818;stroke-width:1;"/><text fill="#000000" font-family="sans-serif" font-size="13" font-weight="bold" lengthAdjust="spacing" textLength="7.23" x="466.3701" y="170.8076">3</text><text fill="#000000" font-family="sans-serif" font-size="13" lengthAdjust="spacing" textLength="170.5234" x="477.6001" y="170.8076">validate(username,password)</text></g><g class="message" data-entity-1="part3" data-entity-2="part4" id="msg4"><polygon fill="#181818" points="737.6362,215.0156,747.6362,219.0156,737.6362,223.0156,741.6362,219.0156" style="stroke:#181818;stroke-width:1;"/><line style="stroke:#181818;stroke-width:1;" x1="459.3701" x2="743.6362" y1="219.0156" y2="219.0156"/><text fill="#000000" font-family="sans-serif" font-size="13" font-weight="bold" lengthAdjust="spacing" textLength="7.23" x="471.3701" y="214.1592">4</text><text fill="#000000" font-family="sans-serif" font-size="13" lengthAdjust="spacing" textLength="255.0361" x="482.6001" y="214.1592">tooManyAttempts(throttleKey, maxAttempts)</text></g><path d="M10,234.0156 L70.1709,234.0156 L70.1709,242.3672 L60.1709,252.3672 L10,252.3672 L10,234.0156" fill="#EEEEEE" style="stroke:#000000;stroke-width:1.5;"/><rect fill="none" height="398.8906" style="stroke:#000000;stroke-width:1.5;" width="936.2324" x="10" y="234.0156"/><text fill="#000000" font-family="sans-serif" font-size="13" font-weight="bold" lengthAdjust="spacing" textLength="15.1709" x="25" y="248.5107">alt</text><text fill="#000000" font-family="sans-serif" font-size="11" font-weight="bold" lengthAdjust="spacing" textLength="102.0669" x="85.1709" y="247.4346">[Trop de tentatives]</text><g class="message" data-entity-1="part4" data-entity-2="part3" id="msg5"><polygon fill="#181818" points="470.3701,270.7188,460.3701,274.7188,470.3701,278.7188,466.3701,274.7188" style="stroke:#181818;stroke-width:1;"/><line style="stroke:#181818;stroke-width:1;stroke-dasharray:2,2;" x1="464.3701" x2="748.6362" y1="274.7188" y2="274.7188"/><text fill="#000000" font-family="sans-serif" font-size="13" font-weight="bold" lengthAdjust="spacing" textLength="7.23" x="549.2019" y="269.8623">5</text><text fill="#000000" font-family="sans-serif" font-size="13" lengthAdjust="spacing" textLength="99.3726" x="560.4319" y="269.8623">true + availableIn</text></g><g class="message" data-entity-1="part3" data-entity-2="part1" id="msg6"><polygon fill="#181818" points="63.8413,301.0703,53.8413,305.0703,63.8413,309.0703,59.8413,305.0703" style="stroke:#181818;stroke-width:1;"/><line style="stroke:#181818;stroke-width:1;stroke-dasharray:2,2;" x1="57.8413" x2="458.3701" y1="305.0703" y2="305.0703"/><text fill="#000000" font-family="sans-serif" font-size="13" font-weight="bold" lengthAdjust="spacing" textLength="7.23" x="164.3245" y="300.2139">6</text><text fill="#000000" font-family="sans-serif" font-size="13" lengthAdjust="spacing" textLength="172.3325" x="175.5544" y="300.2139">redirect /login + erreur lockout</text></g><line style="stroke:#000000;stroke-width:1;stroke-dasharray:2,2;" x1="10" x2="946.2324" y1="314.0703" y2="314.0703"/><text fill="#000000" font-family="sans-serif" font-size="11" font-weight="bold" lengthAdjust="spacing" textLength="125.9092" x="15" y="325.4893">[Tentatives disponibles]</text><g class="message" data-entity-1="part4" data-entity-2="part3" id="msg7"><polygon fill="#181818" points="470.3701,347.2578,460.3701,351.2578,470.3701,355.2578,466.3701,351.2578" style="stroke:#181818;stroke-width:1;"/><line style="stroke:#181818;stroke-width:1;stroke-dasharray:2,2;" x1="464.3701" x2="748.6362" y1="351.2578" y2="351.2578"/><text fill="#000000" font-family="sans-serif" font-size="13" font-weight="bold" lengthAdjust="spacing" textLength="7.23" x="585.1582" y="346.4014">7</text><text fill="#000000" font-family="sans-serif" font-size="13" lengthAdjust="spacing" textLength="27.46" x="596.3882" y="346.4014">false</text></g><g class="message" data-entity-1="part3" data-entity-2="part3" id="msg8"><line style="stroke:#181818;stroke-width:1;" x1="459.3701" x2="501.3701" y1="381.6094" y2="381.6094"/><line style="stroke:#181818;stroke-width:1;" x1="501.3701" x2="501.3701" y1="381.6094" y2="394.6094"/><line style="stroke:#181818;stroke-width:1;" x1="460.3701" x2="501.3701" y1="394.6094" y2="394.6094"/><polygon fill="#181818" points="470.3701,390.6094,460.3701,394.6094,470.3701,398.6094,466.3701,394.6094" style="stroke:#181818;stroke-width:1;"/><text fill="#000000" font-family="sans-serif" font-size="13" font-weight="bold" lengthAdjust="spacing" textLength="7.23" x="466.3701" y="376.7529">8</text><text fill="#000000" font-family="sans-serif" font-size="13" lengthAdjust="spacing" textLength="205.2134" x="477.6001" y="376.7529">verifier credentials admin/admin123</text></g><path d="M20,409.6094 L80.1709,409.6094 L80.1709,417.9609 L70.1709,427.9609 L20,427.9609 L20,409.6094" fill="#EEEEEE" style="stroke:#000000;stroke-width:1.5;"/><rect fill="none" height="216.2969" style="stroke:#000000;stroke-width:1.5;" width="916.2324" x="20" y="409.6094"/><text fill="#000000" font-family="sans-serif" font-size="13" font-weight="bold" lengthAdjust="spacing" textLength="15.1709" x="35" y="424.1045">alt</text><text fill="#000000" font-family="sans-serif" font-size="11" font-weight="bold" lengthAdjust="spacing" textLength="117.3691" x="95.1709" y="423.0283">[Credentials invalides]</text><g class="message" data-entity-1="part3" data-entity-2="part4" id="msg9"><polygon fill="#181818" points="737.6362,446.3125,747.6362,450.3125,737.6362,454.3125,741.6362,450.3125" style="stroke:#181818;stroke-width:1;"/><line style="stroke:#181818;stroke-width:1;" x1="459.3701" x2="743.6362" y1="450.3125" y2="450.3125"/><text fill="#000000" font-family="sans-serif" font-size="13" font-weight="bold" lengthAdjust="spacing" textLength="7.23" x="507.1201" y="445.4561">9</text><text fill="#000000" font-family="sans-serif" font-size="13" lengthAdjust="spacing" textLength="183.5361" x="518.3501" y="445.4561">hit(throttleKey, lockoutSeconds)</text></g><g class="message" data-entity-1="part3" data-entity-2="part1" id="msg10"><polygon fill="#181818" points="63.8413,476.6641,53.8413,480.6641,63.8413,484.6641,59.8413,480.6641" style="stroke:#181818;stroke-width:1;"/><line style="stroke:#181818;stroke-width:1;stroke-dasharray:2,2;" x1="57.8413" x2="458.3701" y1="480.6641" y2="480.6641"/><text fill="#000000" font-family="sans-serif" font-size="13" font-weight="bold" lengthAdjust="spacing" textLength="14.46" x="168.6536" y="475.8076">10</text><text fill="#000000" font-family="sans-serif" font-size="13" lengthAdjust="spacing" textLength="156.4443" x="187.1135" y="475.8076">redirect /login + erreur auth</text></g><line style="stroke:#000000;stroke-width:1;stroke-dasharray:2,2;" x1="20" x2="936.2324" y1="489.6641" y2="489.6641"/><text fill="#000000" font-family="sans-serif" font-size="11" font-weight="bold" lengthAdjust="spacing" textLength="107.5938" x="25" y="501.083">[Credentials valides]</text><g class="message" data-entity-1="part3" data-entity-2="part4" id="msg11"><polygon fill="#181818" points="737.6362,522.8516,747.6362,526.8516,737.6362,530.8516,741.6362,526.8516" style="stroke:#181818;stroke-width:1;"/><line style="stroke:#181818;stroke-width:1;" x1="459.3701" x2="743.6362" y1="526.8516" y2="526.8516"/><text fill="#000000" font-family="sans-serif" font-size="13" font-weight="bold" lengthAdjust="spacing" textLength="14.46" x="545.7837" y="521.9951">11</text><text fill="#000000" font-family="sans-serif" font-size="13" lengthAdjust="spacing" textLength="98.979" x="564.2437" y="521.9951">clear(throttleKey)</text></g><g class="message" data-entity-1="part3" data-entity-2="part5" id="msg12"><polygon fill="#181818" points="862.3291,553.2031,872.3291,557.2031,862.3291,561.2031,866.3291,557.2031" style="stroke:#181818;stroke-width:1;"/><line style="stroke:#181818;stroke-width:1;" x1="459.3701" x2="868.3291" y1="557.2031" y2="557.2031"/><text fill="#000000" font-family="sans-serif" font-size="13" font-weight="bold" lengthAdjust="spacing" textLength="14.46" x="621.8506" y="552.3467">12</text><text fill="#000000" font-family="sans-serif" font-size="13" lengthAdjust="spacing" textLength="71.5381" x="640.3105" y="552.3467">regenerate()</text></g><g class="message" data-entity-1="part3" data-entity-2="part5" id="msg13"><polygon fill="#181818" points="862.3291,583.5547,872.3291,587.5547,862.3291,591.5547,866.3291,587.5547" style="stroke:#181818;stroke-width:1;"/><line style="stroke:#181818;stroke-width:1;" x1="459.3701" x2="868.3291" y1="587.5547" y2="587.5547"/><text fill="#000000" font-family="sans-serif" font-size="13" font-weight="bold" lengthAdjust="spacing" textLength="14.46" x="603.4297" y="582.6982">13</text><text fill="#000000" font-family="sans-serif" font-size="13" lengthAdjust="spacing" textLength="108.3799" x="621.8896" y="582.6982">put(is_admin, true)</text></g><g class="message" data-entity-1="part3" data-entity-2="part1" id="msg14"><polygon fill="#181818" points="63.8413,613.9063,53.8413,617.9063,63.8413,621.9063,59.8413,617.9063" style="stroke:#181818;stroke-width:1;"/><line style="stroke:#181818;stroke-width:1;stroke-dasharray:2,2;" x1="57.8413" x2="458.3701" y1="617.9063" y2="617.9063"/><text fill="#000000" font-family="sans-serif" font-size="13" font-weight="bold" lengthAdjust="spacing" textLength="14.46" x="221.5898" y="613.0498">14</text><text fill="#000000" font-family="sans-serif" font-size="13" lengthAdjust="spacing" textLength="50.5718" x="240.0498" y="613.0498">redirect /</text></g><path d="M967,644.9063 L967,703.9063 L1230,703.9063 L1230,654.9063 L1220,644.9063 L967,644.9063" fill="#FEFFDD" style="stroke:#181818;stroke-width:0.5;"/><path d="M1220,644.9063 L1220,654.9063 L1230,654.9063 L1220,644.9063" fill="#FEFFDD" style="stroke:#181818;stroke-width:0.5;"/><text fill="#000000" font-family="sans-serif" font-size="13" lengthAdjust="spacing" textLength="182.1143" x="973" y="663.4014">Le login admin est gere par des</text><text fill="#000000" font-family="sans-serif" font-size="13" lengthAdjust="spacing" textLength="242.8169" x="973" y="679.7529">credentials statiques dans routes/web.php</text><text fill="#000000" font-family="sans-serif" font-size="13" lengthAdjust="spacing" textLength="143.0889" x="973" y="696.1045">et non par la table users.</text><?plantuml-src ZLHDRnen4BtxLumuWVBLf3SEbKXxgRgeD72i50sxasKKhxsrPmdy-uuD2SkgZN80MUCtxxrvjXSxyQvhrXHCV6RNOi065XY4IsxHoGAhYbqDTvzw-_T-zrg_xTUNzASZLzASOiIQPfPh1oKvKNQ3fVW0erdLi1i1HiWhqvwqO5GepPOiFFXEUpBgi3o7vHeiVYvNS6DzpUwt6vVMnoxG93SLgPXHWqOKAhZXD_BYV7-fnjaVx1tNfaB1DKQ2qNo__5NalM_tncJxSFNbw73QzmFZBb9msD0bj1ZZYm_Ln1o0gUNaRmgqepBNZnEOq-OGkaNBQeTEx2Voyww7OWhY_HpTVYP2JIjnB9lWHIpzeFqbDBXxtPZesLY1LV0jL0IYvuN2Mue6b0Uk1YOaT0GNW5jaYsjBtvtY-kgApzbC8L35WKfvJUK2A0Jg0bXVFYlOaDLSLs-2K75ilMDb_O_u4sh7G6-G4GL-uXIdgYipQmTWydEJ_s_lFXibI1D_xI7OvN2pxf0-XRbXEG_mECAIIkygpN3Oze4Ki9EDzkKG-bxUTr9Qmj3tCla7y7XvatXDZaAwDE_Ysax671zpH9VvZ3ysKlBlAfD-ndb51Qut0luflP62u31ofWMA0ZK5qYSH80tOFwAOxe1-FlGIe8iGacIyUQ7rTRjf3GauxtAZHP1qxo0zWdYTf24fcxy0?></g></svg>